<svg width="683" height="677" viewBox="0 0 683 677" fill="none" xmlns="http://www.w3.org/2000/svg">
<path d="M426.761 100.497C413.727 100.497 401.111 101.738 388.987 103.825C373.449 101.87 337.004 99.4814 320.858 99.4814C160.107 99.4814 19.4655 159.227 19.4655 368.363C19.4655 538.29 153.201 676.041 341.538 676.041C529.875 676.041 682.545 538.29 682.545 368.363C682.526 156.82 504.471 100.497 426.761 100.497Z" fill="#DD2E44"/>
<path d="M160.107 1.7113C191.164 32.4772 212.66 44.3247 222.222 94.0466C227.875 123.458 265.213 122.443 265.213 122.443C265.213 122.443 191.164 155.597 160.107 186.382C160.107 186.382 253.26 155.597 284.318 155.597C284.318 155.597 346.414 186.382 346.414 217.148C346.414 217.148 346.414 155.597 315.375 155.597C315.375 155.597 408.51 155.597 408.51 217.148C408.51 217.148 408.51 124.812 377.452 124.812C377.452 124.812 470.625 94.0466 501.683 124.812C501.683 124.812 469.695 92.4669 408.51 94.0466C408.51 94.0466 439.586 63.2619 501.683 63.2619C501.683 63.2619 401.357 34.8467 370.3 96.4161C370.3 96.4161 344.023 70.3704 396.576 18.279C396.576 18.279 315.375 32.4772 315.375 94.0466C315.375 94.0466 285.93 93.2944 265.213 70.3704C224.593 25.3875 160.107 1.7113 160.107 1.7113Z" fill="#77B255"/>
</svg>
